<svg width="596" height="312" viewBox="0 0 596 312" fill="none" xmlns="http://www.w3.org/2000/svg">
<rect x="0.25" y="0.25" width="595.5" height="311.5" rx="19.75" fill="white"/>
<rect x="0.25" y="0.25" width="595.5" height="311.5" rx="19.75" stroke="#333333" stroke-width="0.5"/>
<path d="M65.4086 53.0361V53.0361C66.0173 53.0361 66.5325 53.5847 66.2674 54.1326C66.2452 54.1784 66.2222 54.2237 66.1983 54.2685C65.9709 54.8858 65.616 55.4208 65.263 55.9599C64.9679 56.5431 64.4475 56.9379 64.0646 57.4369C63.6638 57.9218 63.1174 58.2445 62.6847 58.6473C62.26 59.0681 61.7036 59.2786 61.261 59.5752C60.7983 59.8417 60.3955 60.1363 59.9648 60.2766L58.89 60.7214V60.7214C58.3464 60.9485 58.05 61.5385 58.1923 62.1102L58.616 63.8114C58.7797 64.469 59.4437 64.8711 60.1024 64.7114V64.7114C60.4833 64.6152 60.9479 64.503 61.4763 64.3687C62.0167 64.2685 62.593 63.994 63.2351 63.7435C63.8692 63.4589 64.603 63.2665 65.285 62.8096C65.9709 62.3727 66.7626 62.008 67.4605 61.4228C68.1365 60.8196 68.9521 60.2966 69.5543 59.5291C70.2123 58.8116 70.8624 58.0581 71.3669 57.2004C71.9511 56.3828 72.348 55.485 72.7667 54.5972C73.1456 53.7094 73.4507 52.8016 73.6999 51.9198C74.1725 50.1523 74.3839 48.4729 74.4656 47.0361C74.5334 45.5972 74.4936 44.4008 74.4098 43.5351C74.3799 43.1263 74.3241 42.7295 74.2842 42.4549L74.2384 42.1454C74.2362 42.1308 74.222 42.1211 74.2076 42.1244V42.1244C74.1938 42.1276 74.1801 42.1189 74.1771 42.105C73.8196 40.4498 73.0054 38.9291 71.8276 37.7171C70.6438 36.4989 69.141 35.6425 67.4931 35.2468C65.8452 34.8512 64.1196 34.9325 62.5157 35.4813C60.9119 36.0301 59.4954 37.0241 58.4302 38.3481C57.3649 39.6722 56.6945 41.2723 56.4963 42.9633C56.2981 44.6544 56.5804 46.3672 57.3104 47.9038C58.0405 49.4403 59.1884 50.7377 60.6215 51.646C62.0547 52.5542 63.7143 53.0362 65.4086 53.0361ZM43.4739 53.0361V53.0361C44.0826 53.0361 44.5978 53.5847 44.3327 54.1326C44.3105 54.1784 44.2875 54.2237 44.2635 54.2685C44.0362 54.8858 43.6813 55.4208 43.3283 55.9599C43.0332 56.5431 42.5128 56.9379 42.1299 57.4369C41.7291 57.9218 41.1827 58.2445 40.75 58.6473C40.3253 59.0681 39.7689 59.2786 39.3262 59.5752C38.8636 59.8417 38.4608 60.1363 38.0301 60.2766L36.9553 60.7214V60.7214C36.4117 60.9485 36.1153 61.5385 36.2576 62.1102L36.6812 63.8114C36.845 64.469 37.509 64.8711 38.1677 64.7114V64.7114C38.5486 64.6152 39.0132 64.503 39.5416 64.3687C40.082 64.2685 40.6583 63.994 41.3004 63.7435C41.9325 63.4569 42.6683 63.2665 43.3503 62.8076C44.0362 62.3707 44.8279 62.006 45.5258 61.4208C46.2018 60.8176 47.0173 60.2946 47.6196 59.5291C48.2776 58.8116 48.9277 58.0581 49.4322 57.2004C50.0164 56.3828 50.4132 55.485 50.832 54.5972C51.2109 53.7094 51.516 52.8016 51.7652 51.9198C52.2378 50.1523 52.4492 48.4729 52.5309 47.0361C52.5987 45.5972 52.5589 44.4008 52.4751 43.5351C52.4452 43.1263 52.3894 42.7295 52.3495 42.4549L52.3036 42.1454C52.3015 42.1308 52.2873 42.1211 52.2729 42.1244V42.1244C52.2591 42.1276 52.2454 42.1189 52.2424 42.105C51.8849 40.4498 51.0707 38.9291 49.8929 37.7171C48.7091 36.4989 47.2063 35.6425 45.5584 35.2468C43.9105 34.8512 42.1848 34.9325 40.581 35.4813C38.9772 36.0301 37.5607 37.0241 36.4955 38.3481C35.4302 39.6722 34.7597 41.2723 34.5616 42.9633C34.3634 44.6544 34.6457 46.3672 35.3757 47.9038C36.1058 49.4403 37.2537 50.7377 38.6868 51.646C40.1199 52.5542 41.7796 53.0362 43.4739 53.0361Z" fill="#333333"/>
<path d="M44.02 101.32L49.12 107.916L46.808 109.684L40.518 101.456L46.808 93.228L49.12 94.996L44.02 101.32ZM37.968 101.32L43.068 107.916L40.79 109.684L34.5 101.456L40.79 93.228L43.068 94.996L37.968 101.32Z" fill="#333333"/>
<path d="M67.3657 90.032H55.8737V110.126H51.7937V86.326H71.4117V110.126H67.3657V90.032Z" fill="#333333"/>
<path d="M77.684 98.226C77.684 99.858 78.024 101.32 78.704 102.612C79.4067 103.881 80.37 104.879 81.594 105.604C82.818 106.329 84.212 106.692 85.776 106.692C87.3627 106.692 88.7567 106.329 89.958 105.604C91.182 104.879 92.134 103.881 92.814 102.612C93.5167 101.32 93.868 99.858 93.868 98.226C93.868 96.594 93.528 95.1433 92.848 93.874C92.168 92.582 91.216 91.5733 89.992 90.848C88.7907 90.1227 87.3854 89.76 85.776 89.76C84.212 89.76 82.818 90.1227 81.594 90.848C80.37 91.5733 79.4067 92.582 78.704 93.874C78.024 95.1433 77.684 96.594 77.684 98.226ZM73.434 98.226C73.434 96.4353 73.74 94.792 74.352 93.296C74.964 91.8 75.8254 90.508 76.936 89.42C78.0694 88.3093 79.384 87.448 80.88 86.836C82.3987 86.224 84.0307 85.918 85.776 85.918C87.5667 85.918 89.21 86.224 90.706 86.836C92.202 87.448 93.5054 88.3093 94.616 89.42C95.7494 90.508 96.622 91.8 97.234 93.296C97.846 94.792 98.152 96.4353 98.152 98.226C98.152 99.994 97.846 101.637 97.234 103.156C96.622 104.675 95.7607 105.989 94.65 107.1C93.5394 108.211 92.2247 109.083 90.706 109.718C89.21 110.33 87.5667 110.636 85.776 110.636C84.008 110.636 82.3647 110.33 80.846 109.718C79.3274 109.083 78.0127 108.211 76.902 107.1C75.814 105.989 74.964 104.675 74.352 103.156C73.74 101.637 73.434 99.994 73.434 98.226Z" fill="#333333"/>
<path d="M100.054 86.326H104.066V110.126H100.054V86.326ZM102.434 89.862V86.326H107.228C108.95 86.326 110.446 86.632 111.716 87.244C113.008 87.8333 114.005 88.6833 114.708 89.794C115.41 90.882 115.762 92.1853 115.762 93.704C115.762 95.2227 115.41 96.5373 114.708 97.648C114.005 98.7587 113.008 99.62 111.716 100.232C110.446 100.821 108.95 101.116 107.228 101.116H102.434V97.58H107.228C108.61 97.58 109.721 97.2513 110.56 96.594C111.398 95.9367 111.818 94.9733 111.818 93.704C111.818 92.4347 111.398 91.4827 110.56 90.848C109.721 90.1907 108.61 89.862 107.228 89.862H102.434Z" fill="#333333"/>
<path d="M118.175 104.006L118.923 100.606H129.973L130.755 104.006H118.175ZM124.397 93.058L120.657 101.796L120.589 102.68L117.291 110.126H112.769L124.397 85L136.025 110.126H131.503L128.273 102.884L128.171 101.898L124.397 93.058Z" fill="#333333"/>
<path d="M149.179 93.228L143.229 109.106H138.741L149.213 85.136L159.651 109.106H155.163L149.179 93.228ZM158.053 110.126H140.339V113.866H136.531V106.522H161.861V113.866H158.053V110.126Z" fill="#333333"/>
<path d="M165.907 98.226C165.907 99.858 166.247 101.32 166.927 102.612C167.629 103.881 168.593 104.879 169.817 105.604C171.041 106.329 172.435 106.692 173.999 106.692C175.585 106.692 176.979 106.329 178.181 105.604C179.405 104.879 180.357 103.881 181.037 102.612C181.739 101.32 182.091 99.858 182.091 98.226C182.091 96.594 181.751 95.1433 181.071 93.874C180.391 92.582 179.439 91.5733 178.215 90.848C177.013 90.1227 175.608 89.76 173.999 89.76C172.435 89.76 171.041 90.1227 169.817 90.848C168.593 91.5733 167.629 92.582 166.927 93.874C166.247 95.1433 165.907 96.594 165.907 98.226ZM161.657 98.226C161.657 96.4353 161.963 94.792 162.575 93.296C163.187 91.8 164.048 90.508 165.159 89.42C166.292 88.3093 167.607 87.448 169.103 86.836C170.621 86.224 172.253 85.918 173.999 85.918C175.789 85.918 177.433 86.224 178.929 86.836C180.425 87.448 181.728 88.3093 182.839 89.42C183.972 90.508 184.845 91.8 185.457 93.296C186.069 94.792 186.375 96.4353 186.375 98.226C186.375 99.994 186.069 101.637 185.457 103.156C184.845 104.675 183.983 105.989 182.873 107.1C181.762 108.211 180.447 109.083 178.929 109.718C177.433 110.33 175.789 110.636 173.999 110.636C172.231 110.636 170.587 110.33 169.069 109.718C167.55 109.083 166.235 108.211 165.125 107.1C164.037 105.989 163.187 104.675 162.575 103.156C161.963 101.637 161.657 99.994 161.657 98.226Z" fill="#333333"/>
<path d="M191.336 97.852V95.88H195.178C195.926 95.88 196.584 95.7553 197.15 95.506C197.717 95.2567 198.159 94.9053 198.476 94.452C198.794 93.976 198.952 93.4093 198.952 92.752C198.952 91.7547 198.601 90.984 197.898 90.44C197.196 89.896 196.289 89.624 195.178 89.624H192.288V106.828H195.62C196.527 106.828 197.332 106.681 198.034 106.386C198.737 106.091 199.292 105.649 199.7 105.06C200.108 104.471 200.312 103.734 200.312 102.85C200.312 102.215 200.188 101.66 199.938 101.184C199.712 100.685 199.383 100.277 198.952 99.96C198.544 99.62 198.057 99.382 197.49 99.246C196.924 99.0873 196.3 99.008 195.62 99.008H191.336V96.798H195.858C197.014 96.798 198.102 96.9227 199.122 97.172C200.142 97.4213 201.049 97.8067 201.842 98.328C202.658 98.8493 203.293 99.518 203.746 100.334C204.2 101.15 204.426 102.125 204.426 103.258C204.426 104.822 204.052 106.114 203.304 107.134C202.579 108.154 201.57 108.913 200.278 109.412C199.009 109.888 197.536 110.126 195.858 110.126H188.276V86.326H195.45C196.946 86.326 198.261 86.5413 199.394 86.972C200.55 87.4027 201.446 88.06 202.08 88.944C202.738 89.828 203.066 90.95 203.066 92.31C203.066 93.4887 202.738 94.4973 202.08 95.336C201.446 96.152 200.55 96.7753 199.394 97.206C198.261 97.6367 196.946 97.852 195.45 97.852H191.336Z" fill="#333333"/>
<path d="M209.021 104.006L209.769 100.606H220.819L221.601 104.006H209.021ZM215.243 93.058L211.503 101.796L211.435 102.68L208.137 110.126H203.615L215.243 85L226.871 110.126H222.349L219.119 102.884L219.017 101.898L215.243 93.058Z" fill="#333333"/>
<path d="M246.17 86.326V110.126H242.09V90.032H232.604V101.218C232.604 102.963 232.343 104.516 231.822 105.876C231.3 107.213 230.496 108.256 229.408 109.004C228.342 109.752 226.982 110.126 225.328 110.126V106.692C225.872 106.692 226.348 106.556 226.756 106.284C227.164 105.989 227.504 105.593 227.776 105.094C228.07 104.573 228.286 103.961 228.422 103.258C228.58 102.555 228.66 101.785 228.66 100.946V86.326H246.17Z" fill="#333333"/>
<path d="M252.436 98.226C252.436 99.858 252.776 101.32 253.456 102.612C254.159 103.881 255.122 104.879 256.346 105.604C257.57 106.329 258.964 106.692 260.528 106.692C262.115 106.692 263.509 106.329 264.71 105.604C265.934 104.879 266.886 103.881 267.566 102.612C268.269 101.32 268.62 99.858 268.62 98.226C268.62 96.594 268.28 95.1433 267.6 93.874C266.92 92.582 265.968 91.5733 264.744 90.848C263.543 90.1227 262.137 89.76 260.528 89.76C258.964 89.76 257.57 90.1227 256.346 90.848C255.122 91.5733 254.159 92.582 253.456 93.874C252.776 95.1433 252.436 96.594 252.436 98.226ZM248.186 98.226C248.186 96.4353 248.492 94.792 249.104 93.296C249.716 91.8 250.577 90.508 251.688 89.42C252.821 88.3093 254.136 87.448 255.632 86.836C257.151 86.224 258.783 85.918 260.528 85.918C262.319 85.918 263.962 86.224 265.458 86.836C266.954 87.448 268.257 88.3093 269.368 89.42C270.501 90.508 271.374 91.8 271.986 93.296C272.598 94.792 272.904 96.4353 272.904 98.226C272.904 99.994 272.598 101.637 271.986 103.156C271.374 104.675 270.513 105.989 269.402 107.1C268.291 108.211 266.977 109.083 265.458 109.718C263.962 110.33 262.319 110.636 260.528 110.636C258.76 110.636 257.117 110.33 255.598 109.718C254.079 109.083 252.765 108.211 251.654 107.1C250.566 105.989 249.716 104.675 249.104 103.156C248.492 101.637 248.186 99.994 248.186 98.226Z" fill="#333333"/>
<path d="M275.01 108.392C275.01 107.735 275.236 107.179 275.69 106.726C276.166 106.25 276.732 106.012 277.39 106.012C278.092 106.012 278.67 106.25 279.124 106.726C279.577 107.179 279.804 107.735 279.804 108.392C279.804 109.027 279.577 109.582 279.124 110.058C278.67 110.534 278.092 110.772 277.39 110.772C276.732 110.772 276.166 110.534 275.69 110.058C275.236 109.582 275.01 109.027 275.01 108.392ZM275.01 95.54C275.01 94.8827 275.236 94.3273 275.69 93.874C276.166 93.398 276.732 93.16 277.39 93.16C278.092 93.16 278.67 93.398 279.124 93.874C279.577 94.3273 279.804 94.8827 279.804 95.54C279.804 96.1973 279.577 96.764 279.124 97.24C278.67 97.6933 278.092 97.92 277.39 97.92C276.732 97.92 276.166 97.6933 275.69 97.24C275.236 96.764 275.01 96.1973 275.01 95.54Z" fill="#333333"/>
<path d="M293.089 99.212V95.506H310.055V99.212H293.089ZM307.471 86.326H311.483V110.126H307.471V86.326ZM291.491 86.326H295.503V110.126H291.491V86.326Z" fill="#333333"/>
<path d="M335.94 90.644L314.792 111.316L314.962 105.808L336.11 85.136L335.94 90.644ZM318.736 86.326V106.828L314.792 111.316V86.326L318.736 86.326ZM336.11 85.136V110.126H332.166V89.726L336.11 85.136Z" fill="#333333"/>
<path d="M339.388 86.326H343.502V110.126H339.388V86.326ZM352.342 86.326H357.17L347.14 97.478L357.68 110.126H352.75L342.278 97.58L352.342 86.326Z" fill="#333333"/>
<path d="M361.295 104.006L362.043 100.606H373.093L373.875 104.006H361.295ZM367.517 93.058L363.777 101.796L363.709 102.68L360.411 110.126H355.889L367.517 85L379.145 110.126H374.623L371.393 102.884L371.291 101.898L367.517 93.058Z" fill="#333333"/>
<path d="M379.913 86.326H384.027V110.126H379.913V86.326ZM392.867 86.326H397.695L387.665 97.478L398.205 110.126H393.275L382.803 97.58L392.867 86.326Z" fill="#333333"/>
<path d="M400.161 98.226C400.161 99.858 400.501 101.32 401.181 102.612C401.883 103.881 402.847 104.879 404.071 105.604C405.295 106.329 406.689 106.692 408.253 106.692C409.839 106.692 411.233 106.329 412.435 105.604C413.659 104.879 414.611 103.881 415.291 102.612C415.993 101.32 416.345 99.858 416.345 98.226C416.345 96.594 416.005 95.1433 415.325 93.874C414.645 92.582 413.693 91.5733 412.469 90.848C411.267 90.1227 409.862 89.76 408.253 89.76C406.689 89.76 405.295 90.1227 404.071 90.848C402.847 91.5733 401.883 92.582 401.181 93.874C400.501 95.1433 400.161 96.594 400.161 98.226ZM395.911 98.226C395.911 96.4353 396.217 94.792 396.829 93.296C397.441 91.8 398.302 90.508 399.413 89.42C400.546 88.3093 401.861 87.448 403.357 86.836C404.875 86.224 406.507 85.918 408.253 85.918C410.043 85.918 411.687 86.224 413.183 86.836C414.679 87.448 415.982 88.3093 417.093 89.42C418.226 90.508 419.099 91.8 419.711 93.296C420.323 94.792 420.629 96.4353 420.629 98.226C420.629 99.994 420.323 101.637 419.711 103.156C419.099 104.675 418.237 105.989 417.127 107.1C416.016 108.211 414.701 109.083 413.183 109.718C411.687 110.33 410.043 110.636 408.253 110.636C406.485 110.636 404.841 110.33 403.323 109.718C401.804 109.083 400.489 108.211 399.379 107.1C398.291 105.989 397.441 104.675 396.829 103.156C396.217 101.637 395.911 99.994 395.911 98.226Z" fill="#333333"/>
<path d="M422.598 86.326H435.314V90.032H426.644V110.126H422.598V86.326Z" fill="#333333"/>
<path d="M437.498 98.226C437.498 99.858 437.838 101.32 438.518 102.612C439.221 103.881 440.184 104.879 441.408 105.604C442.632 106.329 444.026 106.692 445.59 106.692C447.177 106.692 448.571 106.329 449.772 105.604C450.996 104.879 451.948 103.881 452.628 102.612C453.331 101.32 453.682 99.858 453.682 98.226C453.682 96.594 453.342 95.1433 452.662 93.874C451.982 92.582 451.03 91.5733 449.806 90.848C448.605 90.1227 447.2 89.76 445.59 89.76C444.026 89.76 442.632 90.1227 441.408 90.848C440.184 91.5733 439.221 92.582 438.518 93.874C437.838 95.1433 437.498 96.594 437.498 98.226ZM433.248 98.226C433.248 96.4353 433.554 94.792 434.166 93.296C434.778 91.8 435.64 90.508 436.75 89.42C437.884 88.3093 439.198 87.448 440.694 86.836C442.213 86.224 443.845 85.918 445.59 85.918C447.381 85.918 449.024 86.224 450.52 86.836C452.016 87.448 453.32 88.3093 454.43 89.42C455.564 90.508 456.436 91.8 457.048 93.296C457.66 94.792 457.966 96.4353 457.966 98.226C457.966 99.994 457.66 101.637 457.048 103.156C456.436 104.675 455.575 105.989 454.464 107.1C453.354 108.211 452.039 109.083 450.52 109.718C449.024 110.33 447.381 110.636 445.59 110.636C443.822 110.636 442.179 110.33 440.66 109.718C439.142 109.083 437.827 108.211 436.716 107.1C435.628 105.989 434.778 104.675 434.166 103.156C433.554 101.637 433.248 99.994 433.248 98.226Z" fill="#333333"/>
<path d="M489.21 90.644L468.062 111.316L468.232 105.808L489.38 85.136L489.21 90.644ZM472.006 86.326V106.828L468.062 111.316V86.326H472.006ZM489.38 85.136V110.126H485.436V89.726L489.38 85.136Z" fill="#333333"/>
<path d="M513.805 90.644L492.657 111.316L492.827 105.808L513.975 85.136L513.805 90.644ZM496.601 86.326V106.828L492.657 111.316V86.326H496.601ZM513.975 85.136V110.126H510.031V89.726L513.975 85.136Z" fill="#333333"/>
<path d="M517.457 108.392C517.457 107.735 517.684 107.179 518.137 106.726C518.613 106.25 519.18 106.012 519.837 106.012C520.54 106.012 521.118 106.25 521.571 106.726C522.024 107.179 522.251 107.735 522.251 108.392C522.251 109.027 522.024 109.582 521.571 110.058C521.118 110.534 520.54 110.772 519.837 110.772C519.18 110.772 518.613 110.534 518.137 110.058C517.684 109.582 517.457 109.027 517.457 108.392Z" fill="#333333"/>
<path d="M51.602 124.032H40.11V144.126H36.03V120.326H55.648V144.126H51.602V124.032Z" fill="#333333"/>
<path d="M76.4384 120.326L65.2524 144.126H60.9684L64.0964 137.02L56.2424 120.326H60.9684L67.3264 135.592L65.2524 135.49L72.1204 120.326H76.4384Z" fill="#333333"/>
<path d="M77.0202 120.326H89.7362V124.032H81.0662V144.126H77.0202V120.326Z" fill="#333333"/>
<path d="M90.193 138.006L90.941 134.606H101.991L102.773 138.006H90.193ZM96.415 127.058L92.675 135.796L92.607 136.68L89.309 144.126H84.787L96.415 119L108.043 144.126H103.521L100.291 136.884L100.189 135.898L96.415 127.058Z" fill="#333333"/>
<path d="M110.41 133.212V129.506H119.488V133.212H110.41ZM108.812 120.326H112.824V144.126H108.812V120.326ZM120.984 132.226C120.984 133.858 121.324 135.32 122.004 136.612C122.706 137.881 123.658 138.879 124.86 139.604C126.084 140.329 127.489 140.692 129.076 140.692C130.662 140.692 132.056 140.329 133.258 139.604C134.459 138.879 135.411 137.881 136.114 136.612C136.816 135.32 137.168 133.858 137.168 132.226C137.168 130.594 136.816 129.143 136.114 127.874C135.434 126.582 134.482 125.573 133.258 124.848C132.056 124.123 130.662 123.76 129.076 123.76C127.489 123.76 126.084 124.123 124.86 124.848C123.658 125.573 122.706 126.582 122.004 127.874C121.324 129.143 120.984 130.594 120.984 132.226ZM116.7 132.226C116.7 130.435 117.006 128.792 117.618 127.296C118.252 125.8 119.125 124.508 120.236 123.42C121.346 122.309 122.65 121.448 124.146 120.836C125.664 120.224 127.308 119.918 129.076 119.918C130.844 119.918 132.476 120.224 133.972 120.836C135.49 121.448 136.805 122.309 137.916 123.42C139.026 124.508 139.888 125.8 140.5 127.296C141.112 128.792 141.418 130.435 141.418 132.226C141.418 133.994 141.112 135.637 140.5 137.156C139.888 138.675 139.026 139.989 137.916 141.1C136.805 142.211 135.502 143.083 134.006 143.718C132.51 144.33 130.866 144.636 129.076 144.636C127.285 144.636 125.63 144.33 124.112 143.718C122.616 143.083 121.312 142.211 120.202 141.1C119.091 139.989 118.23 138.675 117.618 137.156C117.006 135.637 116.7 133.994 116.7 132.226Z" fill="#333333"/>
<path d="M139.959 124.032V120.326H156.551V124.032H150.261V144.126H146.215V124.032H139.959Z" fill="#333333"/>
<path d="M167.569 133.96V130.492H181.271V133.96H167.569ZM181.135 132.226C181.135 130.526 180.738 129.041 179.945 127.772C179.152 126.503 178.109 125.517 176.817 124.814C175.548 124.089 174.188 123.726 172.737 123.726C171.626 123.726 170.606 123.873 169.677 124.168C168.748 124.463 167.92 124.859 167.195 125.358C166.47 125.834 165.846 126.367 165.325 126.956V122.434C166.3 121.618 167.365 120.995 168.521 120.564C169.7 120.133 171.15 119.918 172.873 119.918C174.641 119.918 176.273 120.213 177.769 120.802C179.265 121.391 180.568 122.241 181.679 123.352C182.812 124.463 183.685 125.777 184.297 127.296C184.932 128.792 185.249 130.435 185.249 132.226C185.249 134.017 184.932 135.671 184.297 137.19C183.685 138.686 182.812 139.989 181.679 141.1C180.568 142.211 179.265 143.061 177.769 143.65C176.273 144.239 174.641 144.534 172.873 144.534C171.15 144.534 169.7 144.319 168.521 143.888C167.365 143.457 166.3 142.834 165.325 142.018V137.496C165.846 138.085 166.47 138.629 167.195 139.128C167.92 139.604 168.748 139.989 169.677 140.284C170.606 140.579 171.626 140.726 172.737 140.726C174.188 140.726 175.548 140.375 176.817 139.672C178.109 138.947 179.152 137.949 179.945 136.68C180.738 135.388 181.135 133.903 181.135 132.226Z" fill="#333333"/>
<path d="M183.764 124.032V120.326H200.356V124.032H194.066V144.126H190.02V124.032H183.764Z" fill="#333333"/>
<path d="M222.424 124.644L201.276 145.316L201.446 139.808L222.594 119.136L222.424 124.644ZM205.22 120.326V140.828L201.276 145.316V120.326H205.22ZM222.594 119.136V144.126H218.65V123.726L222.594 119.136Z" fill="#333333"/>
<path d="M235.732 133.11V129.642H242.294C243.835 129.642 245.206 129.937 246.408 130.526C247.632 131.115 248.595 131.954 249.298 133.042C250.023 134.107 250.386 135.377 250.386 136.85C250.386 138.301 250.023 139.581 249.298 140.692C248.595 141.78 247.632 142.63 246.408 143.242C245.206 143.831 243.835 144.126 242.294 144.126H235.732V140.59H241.784C242.69 140.59 243.484 140.454 244.164 140.182C244.844 139.91 245.365 139.502 245.728 138.958C246.113 138.391 246.306 137.689 246.306 136.85C246.306 136.011 246.113 135.32 245.728 134.776C245.365 134.209 244.844 133.79 244.164 133.518C243.484 133.246 242.69 133.11 241.784 133.11H235.732ZM234.134 120.326H248.584V123.862H238.214V144.126H234.134V120.326Z" fill="#333333"/>
<path d="M255.276 132.226C255.276 133.858 255.616 135.32 256.296 136.612C256.998 137.881 257.962 138.879 259.186 139.604C260.41 140.329 261.804 140.692 263.368 140.692C264.954 140.692 266.349 140.329 267.55 139.604C268.774 138.879 269.726 137.881 270.406 136.612C271.108 135.32 271.46 133.858 271.46 132.226C271.46 130.594 271.12 129.143 270.44 127.874C269.76 126.582 268.808 125.573 267.584 124.848C266.382 124.123 264.977 123.76 263.368 123.76C261.804 123.76 260.41 124.123 259.186 124.848C257.962 125.573 256.998 126.582 256.296 127.874C255.616 129.143 255.276 130.594 255.276 132.226ZM251.026 132.226C251.026 130.435 251.332 128.792 251.944 127.296C252.556 125.8 253.417 124.508 254.528 123.42C255.661 122.309 256.976 121.448 258.472 120.836C259.99 120.224 261.622 119.918 263.368 119.918C265.158 119.918 266.802 120.224 268.298 120.836C269.794 121.448 271.097 122.309 272.208 123.42C273.341 124.508 274.214 125.8 274.826 127.296C275.438 128.792 275.744 130.435 275.744 132.226C275.744 133.994 275.438 135.637 274.826 137.156C274.214 138.675 273.353 139.989 272.242 141.1C271.131 142.211 269.816 143.083 268.298 143.718C266.802 144.33 265.158 144.636 263.368 144.636C261.6 144.636 259.957 144.33 258.438 143.718C256.919 143.083 255.605 142.211 254.494 141.1C253.406 139.989 252.556 138.675 251.944 137.156C251.332 135.637 251.026 133.994 251.026 132.226Z" fill="#333333"/>
<path d="M274.236 124.032V120.326H290.828V124.032H284.538V144.126H280.492V124.032H274.236Z" fill="#333333"/>
<path d="M310.347 120.326H314.427V144.126H310.347V120.326ZM291.749 120.326H295.761V144.126H291.749V120.326ZM294.129 132.872V129.336H298.923C300.646 129.336 302.142 129.642 303.411 130.254C304.703 130.843 305.7 131.693 306.403 132.804C307.106 133.892 307.457 135.207 307.457 136.748C307.457 138.244 307.106 139.547 306.403 140.658C305.7 141.769 304.703 142.63 303.411 143.242C302.142 143.831 300.646 144.126 298.923 144.126H294.129V140.59H298.923C299.83 140.59 300.623 140.454 301.303 140.182C302.006 139.887 302.55 139.457 302.935 138.89C303.32 138.301 303.513 137.587 303.513 136.748C303.513 135.887 303.32 135.173 302.935 134.606C302.55 134.017 302.006 133.586 301.303 133.314C300.623 133.019 299.83 132.872 298.923 132.872H294.129Z" fill="#333333"/>
<path d="M317.91 142.392C317.91 141.735 318.137 141.179 318.59 140.726C319.066 140.25 319.633 140.012 320.29 140.012C320.993 140.012 321.571 140.25 322.024 140.726C322.477 141.179 322.704 141.735 322.704 142.392C322.704 143.027 322.477 143.582 322.024 144.058C321.571 144.534 320.993 144.772 320.29 144.772C319.633 144.772 319.066 144.534 318.59 144.058C318.137 143.582 317.91 143.027 317.91 142.392Z" fill="#333333"/>
<path d="M332.012 124.032V120.326H348.604V124.032H342.314V144.126H338.268V124.032H332.012Z" fill="#333333"/>
<path d="M367.962 120.326L356.776 144.126H352.492L355.62 137.02L347.766 120.326H352.492L358.85 135.592L356.776 135.49L363.644 120.326H367.962Z" fill="#333333"/>
<path d="M367.457 124.032V120.326H384.049V124.032H377.759V144.126H373.713V124.032H367.457Z" fill="#333333"/>
<path d="M392.891 137.7V134.402H419.037V137.7H392.891Z" fill="#333333"/>
<path d="M51.602 158.032H40.11V178.126H36.03L36.03 154.326H55.648V178.126H51.602V158.032Z" fill="#333333"/>
<path d="M59.0304 154.326H63.0424V178.126H59.0304V154.326ZM61.4104 157.862V154.326H66.2044C67.927 154.326 69.423 154.632 70.6924 155.244C71.9844 155.833 72.9817 156.683 73.6844 157.794C74.387 158.882 74.7384 160.185 74.7384 161.704C74.7384 163.223 74.387 164.537 73.6844 165.648C72.9817 166.759 71.9844 167.62 70.6924 168.232C69.423 168.821 67.927 169.116 66.2044 169.116H61.4104V165.58H66.2044C67.587 165.58 68.6977 165.251 69.5364 164.594C70.375 163.937 70.7944 162.973 70.7944 161.704C70.7944 160.435 70.375 159.483 69.5364 158.848C68.6977 158.191 67.587 157.862 66.2044 157.862H61.4104Z" fill="#333333"/>
<path d="M79.5766 166.226C79.5766 167.858 79.9166 169.32 80.5966 170.612C81.2993 171.881 82.2626 172.879 83.4866 173.604C84.7106 174.329 86.1046 174.692 87.6686 174.692C89.2553 174.692 90.6493 174.329 91.8506 173.604C93.0746 172.879 94.0266 171.881 94.7066 170.612C95.4093 169.32 95.7606 167.858 95.7606 166.226C95.7606 164.594 95.4206 163.143 94.7406 161.874C94.0606 160.582 93.1086 159.573 91.8846 158.848C90.6833 158.123 89.2779 157.76 87.6686 157.76C86.1046 157.76 84.7106 158.123 83.4866 158.848C82.2626 159.573 81.2993 160.582 80.5966 161.874C79.9166 163.143 79.5766 164.594 79.5766 166.226ZM75.3266 166.226C75.3266 164.435 75.6326 162.792 76.2446 161.296C76.8566 159.8 77.7179 158.508 78.8286 157.42C79.9619 156.309 81.2766 155.448 82.7726 154.836C84.2913 154.224 85.9233 153.918 87.6686 153.918C89.4593 153.918 91.1026 154.224 92.5986 154.836C94.0946 155.448 95.3979 156.309 96.5086 157.42C97.6419 158.508 98.5146 159.8 99.1266 161.296C99.7386 162.792 100.045 164.435 100.045 166.226C100.045 167.994 99.7386 169.637 99.1266 171.156C98.5146 172.675 97.6533 173.989 96.5426 175.1C95.4319 176.211 94.1173 177.083 92.5986 177.718C91.1026 178.33 89.4593 178.636 87.6686 178.636C85.9006 178.636 84.2573 178.33 82.7386 177.718C81.2199 177.083 79.9053 176.211 78.7946 175.1C77.7066 173.989 76.8566 172.675 76.2446 171.156C75.6326 169.637 75.3266 167.994 75.3266 166.226Z" fill="#333333"/>
<path d="M104.904 166.226C104.904 167.903 105.278 169.377 106.026 170.646C106.797 171.915 107.794 172.901 109.018 173.604C110.265 174.284 111.614 174.624 113.064 174.624C114.198 174.624 115.218 174.477 116.124 174.182C117.031 173.887 117.847 173.491 118.572 172.992C119.32 172.471 119.966 171.893 120.51 171.258V176.018C119.513 176.834 118.436 177.457 117.28 177.888C116.124 178.319 114.674 178.534 112.928 178.534C111.183 178.534 109.551 178.239 108.032 177.65C106.536 177.061 105.233 176.211 104.122 175.1C103.012 173.989 102.139 172.686 101.504 171.19C100.892 169.671 100.586 168.017 100.586 166.226C100.586 164.435 100.892 162.792 101.504 161.296C102.139 159.777 103.012 158.463 104.122 157.352C105.233 156.241 106.536 155.391 108.032 154.802C109.551 154.213 111.183 153.918 112.928 153.918C114.674 153.918 116.124 154.133 117.28 154.564C118.436 154.995 119.513 155.618 120.51 156.434V161.194C119.966 160.559 119.32 159.993 118.572 159.494C117.847 158.973 117.031 158.565 116.124 158.27C115.218 157.975 114.198 157.828 113.064 157.828C111.614 157.828 110.265 158.179 109.018 158.882C107.794 159.562 106.797 160.537 106.026 161.806C105.278 163.053 104.904 164.526 104.904 166.226Z" fill="#333333"/>
<path d="M120.045 158.032V154.326H136.637V158.032H130.347V178.126H126.301V158.032H120.045Z" fill="#333333"/>
<path d="M138.754 166.226C138.754 167.858 139.094 169.32 139.774 170.612C140.477 171.881 141.44 172.879 142.664 173.604C143.888 174.329 145.282 174.692 146.846 174.692C148.433 174.692 149.827 174.329 151.028 173.604C152.252 172.879 153.204 171.881 153.884 170.612C154.587 169.32 154.938 167.858 154.938 166.226C154.938 164.594 154.598 163.143 153.918 161.874C153.238 160.582 152.286 159.573 151.062 158.848C149.861 158.123 148.456 157.76 146.846 157.76C145.282 157.76 143.888 158.123 142.664 158.848C141.44 159.573 140.477 160.582 139.774 161.874C139.094 163.143 138.754 164.594 138.754 166.226ZM134.504 166.226C134.504 164.435 134.81 162.792 135.422 161.296C136.034 159.8 136.896 158.508 138.006 157.42C139.14 156.309 140.454 155.448 141.95 154.836C143.469 154.224 145.101 153.918 146.846 153.918C148.637 153.918 150.28 154.224 151.776 154.836C153.272 155.448 154.576 156.309 155.686 157.42C156.82 158.508 157.692 159.8 158.304 161.296C158.916 162.792 159.222 164.435 159.222 166.226C159.222 167.994 158.916 169.637 158.304 171.156C157.692 172.675 156.831 173.989 155.72 175.1C154.61 176.211 153.295 177.083 151.776 177.718C150.28 178.33 148.637 178.636 146.846 178.636C145.078 178.636 143.435 178.33 141.916 177.718C140.398 177.083 139.083 176.211 137.972 175.1C136.884 173.989 136.034 172.675 135.422 171.156C134.81 169.637 134.504 167.994 134.504 166.226Z" fill="#333333"/>
<path d="M187.847 154.326V178.126H183.767V158.032H174.281V169.218C174.281 170.963 174.021 172.516 173.499 173.876C172.978 175.213 172.173 176.256 171.085 177.004C170.02 177.752 168.66 178.126 167.005 178.126V174.692C167.549 174.692 168.025 174.556 168.433 174.284C168.841 173.989 169.181 173.593 169.453 173.094C169.748 172.573 169.963 171.961 170.099 171.258C170.258 170.555 170.337 169.785 170.337 168.946V154.326H187.847Z" fill="#333333"/>
<path d="M192.822 167.212V163.506H201.9V167.212H192.822ZM191.224 154.326H195.236V178.126H191.224V154.326ZM203.396 166.226C203.396 167.858 203.736 169.32 204.416 170.612C205.118 171.881 206.07 172.879 207.272 173.604C208.496 174.329 209.901 174.692 211.488 174.692C213.074 174.692 214.468 174.329 215.67 173.604C216.871 172.879 217.823 171.881 218.526 170.612C219.228 169.32 219.58 167.858 219.58 166.226C219.58 164.594 219.228 163.143 218.526 161.874C217.846 160.582 216.894 159.573 215.67 158.848C214.468 158.123 213.074 157.76 211.488 157.76C209.901 157.76 208.496 158.123 207.272 158.848C206.07 159.573 205.118 160.582 204.416 161.874C203.736 163.143 203.396 164.594 203.396 166.226ZM199.112 166.226C199.112 164.435 199.418 162.792 200.03 161.296C200.664 159.8 201.537 158.508 202.648 157.42C203.758 156.309 205.062 155.448 206.558 154.836C208.076 154.224 209.72 153.918 211.488 153.918C213.256 153.918 214.888 154.224 216.384 154.836C217.902 155.448 219.217 156.309 220.328 157.42C221.438 158.508 222.3 159.8 222.912 161.296C223.524 162.792 223.83 164.435 223.83 166.226C223.83 167.994 223.524 169.637 222.912 171.156C222.3 172.675 221.438 173.989 220.328 175.1C219.217 176.211 217.914 177.083 216.418 177.718C214.922 178.33 213.278 178.636 211.488 178.636C209.697 178.636 208.042 178.33 206.524 177.718C205.028 177.083 203.724 176.211 202.614 175.1C201.503 173.989 200.642 172.675 200.03 171.156C199.418 169.637 199.112 167.994 199.112 166.226Z" fill="#333333"/>
<path d="M236.107 161.228L230.157 177.106H225.669L236.141 153.136L246.579 177.106H242.091L236.107 161.228ZM244.981 178.126H227.267V181.866H223.459V174.522H248.789V181.866H244.981V178.126Z" fill="#333333"/>
<path d="M272.122 158.644L250.974 179.316L251.144 173.808L272.292 153.136L272.122 158.644ZM254.918 154.326V174.828L250.974 179.316V154.326H254.918ZM272.292 153.136V178.126H268.348V157.726L272.292 153.136Z" fill="#333333"/>
<path d="M275.773 176.392C275.773 175.735 276 175.179 276.453 174.726C276.929 174.25 277.496 174.012 278.153 174.012C278.856 174.012 279.434 174.25 279.887 174.726C280.341 175.179 280.567 175.735 280.567 176.392C280.567 177.027 280.341 177.582 279.887 178.058C279.434 178.534 278.856 178.772 278.153 178.772C277.496 178.772 276.929 178.534 276.453 178.058C276 177.582 275.773 177.027 275.773 176.392Z" fill="#333333"/>
<path d="M295.213 166.226C295.213 167.903 295.587 169.377 296.335 170.646C297.106 171.915 298.103 172.901 299.327 173.604C300.574 174.284 301.922 174.624 303.373 174.624C304.506 174.624 305.526 174.477 306.433 174.182C307.34 173.887 308.156 173.491 308.881 172.992C309.629 172.471 310.275 171.893 310.819 171.258V176.018C309.822 176.834 308.745 177.457 307.589 177.888C306.433 178.319 304.982 178.534 303.237 178.534C301.492 178.534 299.86 178.239 298.341 177.65C296.845 177.061 295.542 176.211 294.431 175.1C293.32 173.989 292.448 172.686 291.813 171.19C291.201 169.671 290.895 168.017 290.895 166.226C290.895 164.435 291.201 162.792 291.813 161.296C292.448 159.777 293.32 158.463 294.431 157.352C295.542 156.241 296.845 155.391 298.341 154.802C299.86 154.213 301.492 153.918 303.237 153.918C304.982 153.918 306.433 154.133 307.589 154.564C308.745 154.995 309.822 155.618 310.819 156.434V161.194C310.275 160.559 309.629 159.993 308.881 159.494C308.156 158.973 307.34 158.565 306.433 158.27C305.526 157.975 304.506 157.828 303.373 157.828C301.922 157.828 300.574 158.179 299.327 158.882C298.103 159.562 297.106 160.537 296.335 161.806C295.587 163.053 295.213 164.526 295.213 166.226Z" fill="#333333"/>
<path d="M316.823 165.852V163.88H320.665C321.413 163.88 322.07 163.755 322.637 163.506C323.203 163.257 323.645 162.905 323.963 162.452C324.28 161.976 324.439 161.409 324.439 160.752C324.439 159.755 324.087 158.984 323.385 158.44C322.682 157.896 321.775 157.624 320.665 157.624H317.775V174.828H321.107C322.013 174.828 322.818 174.681 323.521 174.386C324.223 174.091 324.779 173.649 325.187 173.06C325.595 172.471 325.799 171.734 325.799 170.85C325.799 170.215 325.674 169.66 325.425 169.184C325.198 168.685 324.869 168.277 324.439 167.96C324.031 167.62 323.543 167.382 322.977 167.246C322.41 167.087 321.787 167.008 321.107 167.008H316.823V164.798H321.345C322.501 164.798 323.589 164.923 324.609 165.172C325.629 165.421 326.535 165.807 327.329 166.328C328.145 166.849 328.779 167.518 329.233 168.334C329.686 169.15 329.913 170.125 329.913 171.258C329.913 172.822 329.539 174.114 328.791 175.134C328.065 176.154 327.057 176.913 325.765 177.412C324.495 177.888 323.022 178.126 321.345 178.126H313.763V154.326H320.937C322.433 154.326 323.747 154.541 324.881 154.972C326.037 155.403 326.932 156.06 327.567 156.944C328.224 157.828 328.553 158.95 328.553 160.31C328.553 161.489 328.224 162.497 327.567 163.336C326.932 164.152 326.037 164.775 324.881 165.206C323.747 165.637 322.433 165.852 320.937 165.852H316.823Z" fill="#333333"/>
<path d="M335.039 166.226C335.039 167.858 335.38 169.32 336.06 170.612C336.762 171.881 337.725 172.879 338.949 173.604C340.173 174.329 341.568 174.692 343.132 174.692C344.718 174.692 346.112 174.329 347.314 173.604C348.538 172.879 349.489 171.881 350.169 170.612C350.872 169.32 351.224 167.858 351.224 166.226C351.224 164.594 350.883 163.143 350.203 161.874C349.523 160.582 348.572 159.573 347.348 158.848C346.146 158.123 344.741 157.76 343.132 157.76C341.568 157.76 340.173 158.123 338.949 158.848C337.725 159.573 336.762 160.582 336.06 161.874C335.38 163.143 335.039 164.594 335.039 166.226ZM330.789 166.226C330.789 164.435 331.095 162.792 331.707 161.296C332.319 159.8 333.181 158.508 334.292 157.42C335.425 156.309 336.74 155.448 338.236 154.836C339.754 154.224 341.386 153.918 343.132 153.918C344.922 153.918 346.565 154.224 348.061 154.836C349.557 155.448 350.861 156.309 351.971 157.42C353.105 158.508 353.978 159.8 354.59 161.296C355.202 162.792 355.508 164.435 355.508 166.226C355.508 167.994 355.202 169.637 354.59 171.156C353.978 172.675 353.116 173.989 352.005 175.1C350.895 176.211 349.58 177.083 348.061 177.718C346.565 178.33 344.922 178.636 343.132 178.636C341.363 178.636 339.72 178.33 338.202 177.718C336.683 177.083 335.368 176.211 334.258 175.1C333.17 173.989 332.319 172.675 331.707 171.156C331.095 169.637 330.789 167.994 330.789 166.226Z" fill="#333333"/>
<path d="M378.557 158.644L357.409 179.316L357.579 173.808L378.727 153.136L378.557 158.644ZM361.353 154.326V174.828L357.409 179.316V154.326H361.353ZM378.727 153.136V178.126H374.783V157.726L378.727 153.136Z" fill="#333333"/>
<path d="M386.425 169.592L381.325 162.996L383.603 161.228L389.893 169.456L383.603 177.684L381.325 175.916L386.425 169.592ZM392.443 169.592L387.343 162.996L389.621 161.228L395.911 169.456L389.621 177.684L387.343 175.916L392.443 169.592Z" fill="#333333"/>
<path d="M397.973 176.392C397.973 175.735 398.199 175.179 398.653 174.726C399.129 174.25 399.695 174.012 400.353 174.012C401.055 174.012 401.633 174.25 402.087 174.726C402.54 175.179 402.767 175.735 402.767 176.392C402.767 177.027 402.54 177.582 402.087 178.058C401.633 178.534 401.055 178.772 400.353 178.772C399.695 178.772 399.129 178.534 398.653 178.058C398.199 177.582 397.973 177.027 397.973 176.392Z" fill="#333333"/>
<path d="M132.804 222.582H128.532V231.366H125.78V220.166H135.556V231.366H132.804V222.582Z" fill="#333333"/>
<path d="M139.66 229.174C139.66 229.345 139.708 229.489 139.804 229.606C139.9 229.713 140.028 229.798 140.188 229.862C140.358 229.915 140.534 229.942 140.716 229.942C141.014 229.942 141.286 229.894 141.532 229.798C141.788 229.702 141.99 229.542 142.14 229.318C142.289 229.094 142.364 228.785 142.364 228.39L142.62 229.286C142.62 229.755 142.497 230.161 142.252 230.502C142.017 230.833 141.692 231.089 141.276 231.27C140.87 231.441 140.412 231.526 139.9 231.526C139.388 231.526 138.929 231.441 138.524 231.27C138.118 231.089 137.798 230.833 137.564 230.502C137.34 230.161 137.228 229.75 137.228 229.27C137.228 228.779 137.356 228.358 137.612 228.006C137.878 227.654 138.252 227.382 138.732 227.19C139.212 226.998 139.772 226.902 140.412 226.902C140.785 226.902 141.137 226.945 141.468 227.03C141.809 227.105 142.102 227.206 142.348 227.334C142.604 227.451 142.785 227.569 142.892 227.686V228.822C142.614 228.619 142.326 228.47 142.028 228.374C141.74 228.267 141.388 228.214 140.972 228.214C140.694 228.214 140.454 228.257 140.252 228.342C140.06 228.417 139.91 228.523 139.804 228.662C139.708 228.801 139.66 228.971 139.66 229.174ZM138.716 226.278L137.9 224.646C138.316 224.443 138.812 224.251 139.388 224.07C139.974 223.889 140.598 223.798 141.26 223.798C141.921 223.798 142.508 223.894 143.02 224.086C143.542 224.267 143.948 224.534 144.236 224.886C144.534 225.238 144.684 225.67 144.684 226.182V231.366H142.364V226.662C142.364 226.353 142.246 226.107 142.012 225.926C141.788 225.734 141.473 225.638 141.068 225.638C140.716 225.638 140.38 225.675 140.06 225.75C139.75 225.825 139.478 225.915 139.244 226.022C139.009 226.118 138.833 226.203 138.716 226.278Z" fill="#333333"/>
<path d="M148.139 227.526H150.763C151.275 227.526 151.734 227.579 152.139 227.686C152.544 227.793 152.864 227.979 153.099 228.246C153.334 228.513 153.451 228.886 153.451 229.366C153.451 229.921 153.264 230.395 152.891 230.79C152.528 231.174 151.926 231.366 151.083 231.366H148.139V229.846H150.267C150.608 229.846 150.843 229.771 150.971 229.622C151.11 229.462 151.179 229.291 151.179 229.11C151.179 229.014 151.163 228.923 151.131 228.838C151.099 228.753 151.046 228.678 150.971 228.614C150.907 228.55 150.816 228.497 150.699 228.454C150.582 228.411 150.438 228.39 150.267 228.39H148.139V227.526ZM148.139 227.846V226.902H150.107C150.235 226.902 150.342 226.886 150.427 226.854C150.523 226.811 150.603 226.758 150.667 226.694C150.731 226.63 150.779 226.555 150.811 226.47C150.843 226.385 150.859 226.299 150.859 226.214C150.859 226.022 150.795 225.862 150.667 225.734C150.539 225.595 150.352 225.526 150.107 225.526H148.139V224.006H150.603C151.062 224.006 151.478 224.075 151.851 224.214C152.235 224.342 152.544 224.555 152.779 224.854C153.014 225.142 153.131 225.526 153.131 226.006C153.131 226.422 153.014 226.769 152.779 227.046C152.544 227.313 152.235 227.515 151.851 227.654C151.478 227.782 151.062 227.846 150.603 227.846H148.139ZM146.747 224.006H149.067V231.366H146.747V224.006Z" fill="#333333"/>
<path d="M155.81 228.198V226.854H159.97C159.927 226.555 159.847 226.305 159.73 226.102C159.623 225.899 159.468 225.745 159.266 225.638C159.074 225.521 158.834 225.462 158.546 225.462C158.215 225.462 157.927 225.537 157.682 225.686C157.447 225.825 157.26 226.033 157.122 226.31C156.983 226.577 156.914 226.907 156.914 227.302L156.882 227.686C156.882 228.187 156.956 228.593 157.106 228.902C157.266 229.211 157.474 229.435 157.73 229.574C157.996 229.713 158.284 229.782 158.594 229.782C158.892 229.782 159.154 229.745 159.378 229.67C159.612 229.595 159.815 229.489 159.986 229.35C160.156 229.201 160.3 229.025 160.418 228.822L162.578 229.35C162.332 229.798 162.039 230.187 161.698 230.518C161.356 230.838 160.935 231.089 160.434 231.27C159.943 231.441 159.34 231.526 158.626 231.526C157.74 231.526 156.983 231.361 156.354 231.03C155.735 230.699 155.26 230.246 154.93 229.67C154.61 229.083 154.45 228.422 154.45 227.686C154.45 227.547 154.455 227.414 154.466 227.286C154.476 227.158 154.492 227.03 154.514 226.902C154.62 226.294 154.839 225.761 155.17 225.302C155.511 224.843 155.964 224.486 156.53 224.23C157.106 223.974 157.794 223.846 158.594 223.846C159.458 223.846 160.183 223.995 160.77 224.294C161.356 224.593 161.799 225.019 162.098 225.574C162.407 226.129 162.562 226.795 162.562 227.574C162.562 227.638 162.562 227.729 162.562 227.846C162.562 227.953 162.551 228.07 162.53 228.198H155.81Z" fill="#333333"/>
<path d="M171.829 224.006V231.366H169.509V226.198H166.789V228.806C166.789 229.382 166.682 229.862 166.469 230.246C166.255 230.619 165.893 230.902 165.381 231.094C164.879 231.275 164.186 231.366 163.301 231.366V229.206C163.621 229.206 163.893 229.147 164.117 229.03C164.351 228.902 164.469 228.63 164.469 228.214V224.006H171.829Z" fill="#333333"/>
<path d="M179.09 220.166H181.89V231.366H179.09V220.166ZM185.698 220.166H188.866L184.322 225.414L189.106 231.366H185.826L181.106 225.494L185.698 220.166Z" fill="#333333"/>
<path d="M191.91 229.174C191.91 229.345 191.958 229.489 192.054 229.606C192.15 229.713 192.278 229.798 192.438 229.862C192.608 229.915 192.784 229.942 192.966 229.942C193.264 229.942 193.536 229.894 193.782 229.798C194.038 229.702 194.24 229.542 194.39 229.318C194.539 229.094 194.614 228.785 194.614 228.39L194.87 229.286C194.87 229.755 194.747 230.161 194.502 230.502C194.267 230.833 193.942 231.089 193.526 231.27C193.12 231.441 192.662 231.526 192.15 231.526C191.638 231.526 191.179 231.441 190.774 231.27C190.368 231.089 190.048 230.833 189.814 230.502C189.59 230.161 189.478 229.75 189.478 229.27C189.478 228.779 189.606 228.358 189.862 228.006C190.128 227.654 190.502 227.382 190.982 227.19C191.462 226.998 192.022 226.902 192.662 226.902C193.035 226.902 193.387 226.945 193.718 227.03C194.059 227.105 194.352 227.206 194.598 227.334C194.854 227.451 195.035 227.569 195.142 227.686V228.822C194.864 228.619 194.576 228.47 194.278 228.374C193.99 228.267 193.638 228.214 193.222 228.214C192.944 228.214 192.704 228.257 192.502 228.342C192.31 228.417 192.16 228.523 192.054 228.662C191.958 228.801 191.91 228.971 191.91 229.174ZM190.966 226.278L190.15 224.646C190.566 224.443 191.062 224.251 191.638 224.07C192.224 223.889 192.848 223.798 193.51 223.798C194.171 223.798 194.758 223.894 195.27 224.086C195.792 224.267 196.198 224.534 196.486 224.886C196.784 225.238 196.934 225.67 196.934 226.182V231.366H194.614V226.662C194.614 226.353 194.496 226.107 194.262 225.926C194.038 225.734 193.723 225.638 193.318 225.638C192.966 225.638 192.63 225.675 192.31 225.75C192 225.825 191.728 225.915 191.494 226.022C191.259 226.118 191.083 226.203 190.966 226.278Z" fill="#333333"/>
<path d="M202.149 227.686V226.966C202.49 226.966 202.736 226.902 202.885 226.774C203.045 226.635 203.125 226.465 203.125 226.262C203.125 226.059 203.05 225.899 202.901 225.782C202.752 225.654 202.554 225.59 202.309 225.59C202.128 225.59 201.962 225.627 201.813 225.702C201.674 225.777 201.568 225.878 201.493 226.006C201.418 226.134 201.376 226.283 201.365 226.454H199.173C199.173 225.931 199.301 225.478 199.557 225.094C199.824 224.699 200.186 224.395 200.645 224.182C201.114 223.958 201.664 223.846 202.293 223.846C202.88 223.846 203.402 223.942 203.861 224.134C204.32 224.315 204.677 224.566 204.933 224.886C205.2 225.195 205.333 225.553 205.333 225.958C205.333 226.502 205.072 226.939 204.549 227.27C204.037 227.59 203.237 227.729 202.149 227.686ZM202.261 231.526C201.216 231.526 200.389 231.286 199.781 230.806C199.184 230.315 198.842 229.665 198.757 228.854H201.045C201.13 229.163 201.274 229.403 201.477 229.574C201.68 229.734 201.936 229.814 202.245 229.814C202.48 229.814 202.682 229.782 202.853 229.718C203.024 229.643 203.157 229.547 203.253 229.43C203.349 229.302 203.397 229.147 203.397 228.966C203.397 228.785 203.349 228.635 203.253 228.518C203.168 228.39 203.029 228.294 202.837 228.23C202.656 228.155 202.426 228.118 202.149 228.118V227.206C203.269 227.153 204.133 227.313 204.741 227.686C205.349 228.049 205.653 228.561 205.653 229.222C205.653 229.681 205.504 230.086 205.205 230.438C204.917 230.779 204.517 231.046 204.005 231.238C203.493 231.43 202.912 231.526 202.261 231.526Z" fill="#333333"/>
<path d="M209.191 229.174C209.191 229.345 209.239 229.489 209.335 229.606C209.431 229.713 209.559 229.798 209.719 229.862C209.89 229.915 210.066 229.942 210.247 229.942C210.546 229.942 210.818 229.894 211.063 229.798C211.319 229.702 211.522 229.542 211.671 229.318C211.82 229.094 211.895 228.785 211.895 228.39L212.151 229.286C212.151 229.755 212.028 230.161 211.783 230.502C211.548 230.833 211.223 231.089 210.807 231.27C210.402 231.441 209.943 231.526 209.431 231.526C208.919 231.526 208.46 231.441 208.055 231.27C207.65 231.089 207.33 230.833 207.095 230.502C206.871 230.161 206.759 229.75 206.759 229.27C206.759 228.779 206.887 228.358 207.143 228.006C207.41 227.654 207.783 227.382 208.263 227.19C208.743 226.998 209.303 226.902 209.943 226.902C210.316 226.902 210.668 226.945 210.999 227.03C211.34 227.105 211.634 227.206 211.879 227.334C212.135 227.451 212.316 227.569 212.423 227.686V228.822C212.146 228.619 211.858 228.47 211.559 228.374C211.271 228.267 210.919 228.214 210.503 228.214C210.226 228.214 209.986 228.257 209.783 228.342C209.591 228.417 209.442 228.523 209.335 228.662C209.239 228.801 209.191 228.971 209.191 229.174ZM208.247 226.278L207.431 224.646C207.847 224.443 208.343 224.251 208.919 224.07C209.506 223.889 210.13 223.798 210.791 223.798C211.452 223.798 212.039 223.894 212.551 224.086C213.074 224.267 213.479 224.534 213.767 224.886C214.066 225.238 214.215 225.67 214.215 226.182V231.366H211.895V226.662C211.895 226.353 211.778 226.107 211.543 225.926C211.319 225.734 211.004 225.638 210.599 225.638C210.247 225.638 209.911 225.675 209.591 225.75C209.282 225.825 209.01 225.915 208.775 226.022C208.54 226.118 208.364 226.203 208.247 226.278Z" fill="#333333"/>
<path d="M216.006 224.006H218.326V231.366H216.006V224.006ZM220.998 224.006H223.894L220.742 227.046L224.214 231.366H221.366L217.846 227.046L220.998 224.006Z" fill="#333333"/>
<path d="M224.59 227.686C224.59 226.907 224.771 226.23 225.134 225.654C225.497 225.078 225.998 224.63 226.638 224.31C227.278 223.99 227.998 223.83 228.798 223.83C229.598 223.83 230.313 223.99 230.942 224.31C231.582 224.63 232.083 225.078 232.446 225.654C232.819 226.23 233.006 226.907 233.006 227.686C233.006 228.454 232.819 229.126 232.446 229.702C232.083 230.278 231.582 230.726 230.942 231.046C230.313 231.366 229.598 231.526 228.798 231.526C227.998 231.526 227.278 231.366 226.638 231.046C225.998 230.726 225.497 230.278 225.134 229.702C224.771 229.126 224.59 228.454 224.59 227.686ZM227.07 227.686C227.07 228.07 227.15 228.401 227.31 228.678C227.47 228.945 227.678 229.153 227.934 229.302C228.19 229.451 228.478 229.526 228.798 229.526C229.107 229.526 229.39 229.451 229.646 229.302C229.913 229.153 230.121 228.945 230.27 228.678C230.43 228.401 230.51 228.07 230.51 227.686C230.51 227.302 230.43 226.971 230.27 226.694C230.121 226.417 229.913 226.203 229.646 226.054C229.39 225.905 229.107 225.83 228.798 225.83C228.478 225.83 228.19 225.905 227.934 226.054C227.678 226.203 227.47 226.417 227.31 226.694C227.15 226.971 227.07 227.302 227.07 227.686Z" fill="#333333"/>
<path d="M236.108 227.526H238.732C239.244 227.526 239.702 227.579 240.108 227.686C240.513 227.793 240.833 227.979 241.068 228.246C241.302 228.513 241.42 228.886 241.42 229.366C241.42 229.921 241.233 230.395 240.86 230.79C240.497 231.174 239.894 231.366 239.052 231.366H236.108V229.846H238.236C238.577 229.846 238.812 229.771 238.94 229.622C239.078 229.462 239.148 229.291 239.148 229.11C239.148 229.014 239.132 228.923 239.1 228.838C239.068 228.753 239.014 228.678 238.94 228.614C238.876 228.55 238.785 228.497 238.668 228.454C238.55 228.411 238.406 228.39 238.236 228.39H236.108V227.526ZM236.108 227.846V226.902H238.076C238.204 226.902 238.31 226.886 238.396 226.854C238.492 226.811 238.572 226.758 238.636 226.694C238.7 226.63 238.748 226.555 238.78 226.47C238.812 226.385 238.828 226.299 238.828 226.214C238.828 226.022 238.764 225.862 238.636 225.734C238.508 225.595 238.321 225.526 238.076 225.526H236.108V224.006H238.572C239.03 224.006 239.446 224.075 239.82 224.214C240.204 224.342 240.513 224.555 240.748 224.854C240.982 225.142 241.1 225.526 241.1 226.006C241.1 226.422 240.982 226.769 240.748 227.046C240.513 227.313 240.204 227.515 239.82 227.654C239.446 227.782 239.03 227.846 238.572 227.846H236.108ZM234.716 224.006H237.036V231.366H234.716V224.006Z" fill="#333333"/>
<g opacity="0.7">
<path d="M126.684 249.673V248.919H128.153C128.439 248.919 128.69 248.871 128.907 248.776C129.124 248.681 129.293 248.546 129.414 248.373C129.535 248.191 129.596 247.974 129.596 247.723C129.596 247.342 129.462 247.047 129.193 246.839C128.924 246.631 128.578 246.527 128.153 246.527H127.048V253.105H128.322C128.669 253.105 128.976 253.049 129.245 252.936C129.514 252.823 129.726 252.654 129.882 252.429C130.038 252.204 130.116 251.922 130.116 251.584C130.116 251.341 130.068 251.129 129.973 250.947C129.886 250.756 129.761 250.6 129.596 250.479C129.44 250.349 129.254 250.258 129.037 250.206C128.82 250.145 128.582 250.115 128.322 250.115H126.684V249.27H128.413C128.855 249.27 129.271 249.318 129.661 249.413C130.051 249.508 130.398 249.656 130.701 249.855C131.013 250.054 131.256 250.31 131.429 250.622C131.602 250.934 131.689 251.307 131.689 251.74C131.689 252.338 131.546 252.832 131.26 253.222C130.983 253.612 130.597 253.902 130.103 254.093C129.618 254.275 129.054 254.366 128.413 254.366H125.514V245.266H128.257C128.829 245.266 129.332 245.348 129.765 245.513C130.207 245.678 130.549 245.929 130.792 246.267C131.043 246.605 131.169 247.034 131.169 247.554C131.169 248.005 131.043 248.39 130.792 248.711C130.549 249.023 130.207 249.261 129.765 249.426C129.332 249.591 128.829 249.673 128.257 249.673H126.684Z" fill="#333333"/>
<path d="M132.555 254.366L136.767 249.933C136.984 249.699 137.17 249.474 137.326 249.257C137.482 249.04 137.599 248.824 137.677 248.607C137.755 248.39 137.794 248.161 137.794 247.918C137.794 247.745 137.759 247.576 137.69 247.411C137.629 247.238 137.53 247.082 137.391 246.943C137.261 246.804 137.101 246.696 136.91 246.618C136.719 246.531 136.498 246.488 136.247 246.488C135.9 246.488 135.601 246.57 135.35 246.735C135.099 246.891 134.904 247.121 134.765 247.424C134.635 247.727 134.57 248.078 134.57 248.477H133.049C133.049 247.827 133.17 247.251 133.413 246.748C133.664 246.237 134.028 245.838 134.505 245.552C134.99 245.257 135.58 245.11 136.273 245.11C136.802 245.11 137.261 245.197 137.651 245.37C138.041 245.535 138.362 245.751 138.613 246.02C138.873 246.289 139.064 246.583 139.185 246.904C139.315 247.225 139.38 247.537 139.38 247.84C139.38 248.317 139.263 248.776 139.029 249.218C138.804 249.66 138.505 250.054 138.132 250.401L135.545 252.936H139.497V254.366H132.555Z" fill="#333333"/>
<path d="M142.325 249.673V248.919H143.794C144.08 248.919 144.331 248.871 144.548 248.776C144.764 248.681 144.933 248.546 145.055 248.373C145.176 248.191 145.237 247.974 145.237 247.723C145.237 247.342 145.102 247.047 144.834 246.839C144.565 246.631 144.218 246.527 143.794 246.527H142.689V253.105H143.963C144.309 253.105 144.617 253.049 144.886 252.936C145.154 252.823 145.367 252.654 145.523 252.429C145.679 252.204 145.757 251.922 145.757 251.584C145.757 251.341 145.709 251.129 145.614 250.947C145.527 250.756 145.401 250.6 145.237 250.479C145.081 250.349 144.894 250.258 144.678 250.206C144.461 250.145 144.223 250.115 143.963 250.115H142.325V249.27H144.054C144.496 249.27 144.912 249.318 145.302 249.413C145.692 249.508 146.038 249.656 146.342 249.855C146.654 250.054 146.896 250.31 147.07 250.622C147.243 250.934 147.33 251.307 147.33 251.74C147.33 252.338 147.187 252.832 146.901 253.222C146.623 253.612 146.238 253.902 145.744 254.093C145.258 254.275 144.695 254.366 144.054 254.366H141.155V245.266H143.898C144.47 245.266 144.972 245.348 145.406 245.513C145.848 245.678 146.19 245.929 146.433 246.267C146.684 246.605 146.81 247.034 146.81 247.554C146.81 248.005 146.684 248.39 146.433 248.711C146.19 249.023 145.848 249.261 145.406 249.426C144.972 249.591 144.47 249.673 143.898 249.673H142.325Z" fill="#333333"/>
<path d="M148 251.909V250.648H150.665V251.909H148Z" fill="#333333"/>
<path d="M152.561 251.376C152.561 251.757 152.644 252.091 152.808 252.377C152.973 252.654 153.194 252.875 153.471 253.04C153.757 253.205 154.074 253.287 154.42 253.287C154.706 253.287 154.979 253.244 155.239 253.157C155.499 253.07 155.729 252.949 155.928 252.793C156.128 252.637 156.275 252.464 156.37 252.273V253.82C156.162 254.028 155.881 254.193 155.525 254.314C155.17 254.435 154.78 254.496 154.355 254.496C153.74 254.496 153.185 254.366 152.691 254.106C152.206 253.837 151.82 253.469 151.534 253.001C151.257 252.524 151.118 251.983 151.118 251.376C151.118 250.761 151.257 250.219 151.534 249.751C151.82 249.283 152.206 248.919 152.691 248.659C153.185 248.39 153.74 248.256 154.355 248.256C154.78 248.256 155.17 248.317 155.525 248.438C155.881 248.559 156.162 248.724 156.37 248.932V250.479C156.275 250.28 156.123 250.106 155.915 249.959C155.716 249.803 155.486 249.682 155.226 249.595C154.966 249.508 154.698 249.465 154.42 249.465C154.074 249.465 153.757 249.547 153.471 249.712C153.194 249.877 152.973 250.102 152.808 250.388C152.644 250.674 152.561 251.003 152.561 251.376Z" fill="#333333"/>
<path d="M158.299 251.701V250.739H162.056C162.022 250.453 161.944 250.206 161.822 249.998C161.71 249.781 161.549 249.617 161.341 249.504C161.133 249.383 160.878 249.322 160.574 249.322C160.262 249.322 159.981 249.391 159.729 249.53C159.478 249.66 159.279 249.855 159.131 250.115C158.984 250.366 158.91 250.665 158.91 251.012L158.884 251.376C158.884 251.818 158.954 252.186 159.092 252.481C159.24 252.767 159.439 252.984 159.69 253.131C159.95 253.27 160.249 253.339 160.587 253.339C160.865 253.339 161.107 253.3 161.315 253.222C161.532 253.144 161.723 253.036 161.887 252.897C162.052 252.75 162.191 252.581 162.303 252.39L163.512 252.884C163.313 253.205 163.083 253.486 162.823 253.729C162.572 253.972 162.26 254.162 161.887 254.301C161.523 254.431 161.068 254.496 160.522 254.496C159.907 254.496 159.37 254.362 158.91 254.093C158.451 253.824 158.096 253.456 157.844 252.988C157.593 252.511 157.467 251.974 157.467 251.376C157.467 251.263 157.472 251.155 157.48 251.051C157.489 250.947 157.502 250.843 157.519 250.739C157.606 250.245 157.779 249.812 158.039 249.439C158.308 249.066 158.659 248.776 159.092 248.568C159.526 248.36 160.024 248.256 160.587 248.256C161.203 248.256 161.731 248.382 162.173 248.633C162.624 248.876 162.971 249.227 163.213 249.686C163.456 250.137 163.577 250.678 163.577 251.311C163.577 251.363 163.577 251.424 163.577 251.493C163.577 251.554 163.569 251.623 163.551 251.701H158.299Z" fill="#333333"/>
<path d="M166.295 257.226H164.878V248.386H166.295V257.226ZM171.248 251.376C171.248 252.035 171.114 252.602 170.845 253.079C170.576 253.547 170.221 253.907 169.779 254.158C169.337 254.401 168.856 254.522 168.336 254.522C167.825 254.522 167.378 254.396 166.997 254.145C166.624 253.885 166.334 253.521 166.126 253.053C165.927 252.576 165.827 252.017 165.827 251.376C165.827 250.726 165.927 250.167 166.126 249.699C166.334 249.231 166.624 248.871 166.997 248.62C167.378 248.36 167.825 248.23 168.336 248.23C168.856 248.23 169.337 248.356 169.779 248.607C170.221 248.85 170.576 249.205 170.845 249.673C171.114 250.141 171.248 250.709 171.248 251.376ZM169.792 251.376C169.792 250.977 169.71 250.639 169.545 250.362C169.38 250.076 169.159 249.864 168.882 249.725C168.613 249.578 168.314 249.504 167.985 249.504C167.716 249.504 167.452 249.578 167.192 249.725C166.932 249.864 166.715 250.072 166.542 250.349C166.377 250.626 166.295 250.969 166.295 251.376C166.295 251.783 166.377 252.126 166.542 252.403C166.715 252.68 166.932 252.893 167.192 253.04C167.452 253.179 167.716 253.248 167.985 253.248C168.314 253.248 168.613 253.179 168.882 253.04C169.159 252.893 169.38 252.68 169.545 252.403C169.71 252.117 169.792 251.775 169.792 251.376Z" fill="#333333"/>
<path d="M173.482 251.246H175.38C175.796 251.246 176.169 251.289 176.498 251.376C176.828 251.463 177.088 251.614 177.278 251.831C177.469 252.048 177.564 252.351 177.564 252.741C177.564 253.192 177.413 253.577 177.109 253.898C176.815 254.21 176.325 254.366 175.64 254.366H173.482V253.326H175.211C175.558 253.326 175.809 253.252 175.965 253.105C176.121 252.958 176.199 252.784 176.199 252.585C176.199 252.481 176.178 252.386 176.134 252.299C176.091 252.212 176.03 252.134 175.952 252.065C175.883 251.996 175.783 251.944 175.653 251.909C175.532 251.874 175.385 251.857 175.211 251.857H173.482V251.246ZM173.482 251.506V250.83H175.081C175.211 250.83 175.328 250.813 175.432 250.778C175.545 250.743 175.636 250.691 175.705 250.622C175.775 250.553 175.831 250.475 175.874 250.388C175.918 250.301 175.939 250.21 175.939 250.115C175.939 249.916 175.861 249.751 175.705 249.621C175.558 249.491 175.35 249.426 175.081 249.426H173.482V248.386H175.25C175.623 248.386 175.961 248.442 176.264 248.555C176.576 248.659 176.828 248.832 177.018 249.075C177.209 249.309 177.304 249.621 177.304 250.011C177.304 250.349 177.209 250.631 177.018 250.856C176.828 251.073 176.576 251.237 176.264 251.35C175.961 251.454 175.623 251.506 175.25 251.506H173.482ZM172.663 248.386H174.041V254.366H172.663V248.386Z" fill="#333333"/>
<path d="M184.278 249.686L178.909 254.821L178.974 253.066L184.343 247.931L184.278 249.686ZM180.287 248.386V253.235L178.909 254.821V248.386H180.287ZM184.343 247.931V254.366H182.965V249.517L184.343 247.931Z" fill="#333333"/>
<path d="M187.131 251.376C187.131 251.757 187.213 252.091 187.378 252.377C187.542 252.654 187.763 252.875 188.041 253.04C188.327 253.205 188.643 253.287 188.99 253.287C189.276 253.287 189.549 253.244 189.809 253.157C190.069 253.07 190.298 252.949 190.498 252.793C190.697 252.637 190.844 252.464 190.94 252.273V253.82C190.732 254.028 190.45 254.193 190.095 254.314C189.739 254.435 189.349 254.496 188.925 254.496C188.309 254.496 187.755 254.366 187.261 254.106C186.775 253.837 186.39 253.469 186.104 253.001C185.826 252.524 185.688 251.983 185.688 251.376C185.688 250.761 185.826 250.219 186.104 249.751C186.39 249.283 186.775 248.919 187.261 248.659C187.755 248.39 188.309 248.256 188.925 248.256C189.349 248.256 189.739 248.317 190.095 248.438C190.45 248.559 190.732 248.724 190.94 248.932V250.479C190.844 250.28 190.693 250.106 190.485 249.959C190.285 249.803 190.056 249.682 189.796 249.595C189.536 249.508 189.267 249.465 188.99 249.465C188.643 249.465 188.327 249.547 188.041 249.712C187.763 249.877 187.542 250.102 187.378 250.388C187.213 250.674 187.131 251.003 187.131 251.376Z" fill="#333333"/>
</g>
<mask id="mask0_101_341" style="mask-type:alpha" maskUnits="userSpaceOnUse" x="34" y="201" width="71" height="71">
<circle cx="69.5" cy="236.866" r="35" fill="#C4C4C4"/>
</mask>
<g mask="url(#mask0_101_341)">
<rect x="34.5" y="201.866" width="70" height="70" rx="35"/>
</g>
</svg>
